<?xml version="1.0" encoding="UTF-8"?>
<svg width="512" height="512" viewBox="0 0 512 512" xmlns="http://www.w3.org/2000/svg">
  <defs>
    <!-- Gradient for the coin -->
    <radialGradient id="coinGradient" cx="0.3" cy="0.3" r="0.8">
      <stop offset="0%" style="stop-color:#FFD700;stop-opacity:1" />
      <stop offset="100%" style="stop-color:#FFA500;stop-opacity:1" />
    </radialGradient>
    
    <!-- Gradient for the background -->
    <linearGradient id="bgGradient" x1="0%" y1="0%" x2="100%" y2="100%">
      <stop offset="0%" style="stop-color:#2196F3;stop-opacity:1" />
      <stop offset="100%" style="stop-color:#1565C0;stop-opacity:1" />
    </linearGradient>
    
    <!-- Gradient for analytics elements -->
    <linearGradient id="chartGradient" x1="0%" y1="0%" x2="100%" y2="100%">
      <stop offset="0%" style="stop-color:#4CAF50;stop-opacity:1" />
      <stop offset="100%" style="stop-color:#2E7D32;stop-opacity:1" />
    </linearGradient>
  </defs>
  
  <!-- Background circle with rounded square effect -->
  <rect x="32" y="32" width="448" height="448" rx="96" ry="96" fill="url(#bgGradient)" />
  
  <!-- Main coin -->
  <circle cx="256" cy="220" r="120" fill="url(#coinGradient)" stroke="#E68900" stroke-width="6"/>
  
  <!-- Penny symbol "P" using path instead of text -->
  <path d="M220 180 L220 280 M220 180 L260 180 Q280 180 280 210 Q280 240 260 240 L220 240" 
        stroke="#B8860B" stroke-width="12" fill="none" stroke-linecap="round" stroke-linejoin="round"/>
  
  <!-- Analytics chart bars at bottom -->
  <rect x="180" y="380" width="24" height="60" fill="url(#chartGradient)" rx="4"/>
  <rect x="220" y="360" width="24" height="80" fill="url(#chartGradient)" rx="4"/>
  <rect x="260" y="340" width="24" height="100" fill="url(#chartGradient)" rx="4"/>
  <rect x="300" y="350" width="24" height="90" fill="url(#chartGradient)" rx="4"/>
  
  <!-- Small sparkle effects around the coin -->
  <circle cx="180" cy="150" r="8" fill="#FFEB3B" opacity="0.8"/>
  <circle cx="350" cy="170" r="6" fill="#FFEB3B" opacity="0.6"/>
  <circle cx="160" cy="280" r="5" fill="#FFEB3B" opacity="0.7"/>
  <circle cx="370" cy="250" r="7" fill="#FFEB3B" opacity="0.5"/>
  
  <!-- Smart indicator - gear/cog -->
  <g transform="translate(350, 120) scale(0.8)">
    <circle cx="0" cy="0" r="20" fill="#37474F" opacity="0.9"/>
    <circle cx="0" cy="0" r="12" fill="none" stroke="#ECEFF1" stroke-width="2"/>
    <circle cx="0" cy="-16" r="3" fill="#ECEFF1"/>
    <circle cx="11" cy="-11" r="3" fill="#ECEFF1"/>
    <circle cx="16" cy="0" r="3" fill="#ECEFF1"/>
    <circle cx="11" cy="11" r="3" fill="#ECEFF1"/>
    <circle cx="0" cy="16" r="3" fill="#ECEFF1"/>
    <circle cx="-11" cy="11" r="3" fill="#ECEFF1"/>
    <circle cx="-16" cy="0" r="3" fill="#ECEFF1"/>
    <circle cx="-11" cy="-11" r="3" fill="#ECEFF1"/>
  </g>
</svg>
